<svg width="147" height="37" viewBox="0 0 147 37" xmlns="http://www.w3.org/2000/svg" fill="none"><path d="M99.722 11.939c-.4-.399-.942-.623-1.508-.623-.565 0-1.108.224-1.508.623l-11.293 11.278-4.182-4.176c-.192-.223-.428-.403-.693-.53-.265-.127-.553-.198-.847-.209-.294-.011-.587.04-.86.147-.273.108-.522.271-.729.479-.207.208-.369.457-.476.73-.107.274-.156.566-.143.86.012.293.085.581.213.845.129.264.311.499.534.689l7.197 7.187 14.295-14.289c.4-.399.624-.941.624-1.506 0-.565-.224-1.106-.624-1.506z" fill="#83D68F"/><path d="M75.492 0c3.912 0 7.665 1.551 10.433 4.312 2.455 2.441 3.962 5.672 4.253 9.119.021.435-.052.869-.214 1.274-.162.404-.409.769-.724 1.07-.443.449-1.01.755-1.628.879-.619.124-1.26.06-1.842-.183-.566-.235-1.053-.628-1.401-1.132-.348-.504-.543-1.097-.562-1.709-.112-.878-.366-1.732-.754-2.528-.414-.844-.967-1.612-1.636-2.273-.777-.779-1.7-1.396-2.717-1.818-1.017-.422-2.107-.639-3.207-.639-1.101 0-2.191.217-3.207.639-1.017.422-1.94 1.039-2.717 1.818-.799.761-1.431 1.679-1.857 2.696-.426 1.017-.636 2.111-.618 3.213-.019 1.104.192 2.201.617 3.22.426 1.019 1.058 1.94 1.857 2.703 1.329 1.371 3.104 2.222 5.007 2.401.674.103 1.299.411 1.792.881.311.305.554.673.711 1.079.143.367.22.757.228 1.151.007.424-.072.844-.23 1.237-.159.393-.395.75-.694 1.05-.294.302-.646.543-1.034.709-.388.166-.805.253-1.227.257h-.185c-3.365-.346-6.504-1.853-8.876-4.261-1.386-1.355-2.479-2.98-3.213-4.773-.734-1.793-1.093-3.717-1.054-5.653-.038-1.937.321-3.86 1.054-5.653.734-1.793 1.827-3.417 3.213-4.773 2.768-2.761 6.521-4.312 10.433-4.312zM6.856 12.351h-6.856v16.789h7.154v-8.664c-.02-.868.272-1.715.825-2.386.23-.307.529-.556.872-.729.343-.172.721-.263 1.105-.266.348-.025.695.045 1.006.203.311.158.573.397.758.692.451.799.658 1.712.597 2.628v8.523h7.112v-8.665c-.02-.871.278-1.719.839-2.386.234-.306.535-.555.88-.727.345-.172.725-.264 1.111-.267.329-.007.655.072.944.229.289.157.533.387.706.666.451.799.658 1.712.597 2.628v8.523h7.211v-8.523c.034-1.601-.247-3.194-.825-4.687-.459-1.217-1.259-2.277-2.304-3.054-1.015-.711-2.231-1.079-3.471-1.051-1.3-.034-2.584.297-3.705.954-1.121.658-2.036 1.617-2.639 2.767-.469-1.099-1.244-2.041-2.233-2.713-1.045-.673-2.271-1.01-3.513-.966-1.246-.033-2.473.303-3.527.966-1.105.778-2.011 1.805-2.646 2.997v-3.48zM42.087 36.626l.583-5.043c.814.129 1.637.195 2.461.199.57.039 1.141-.05 1.672-.259.531-.209 1.01-.533 1.4-.949.857-1.353 1.242-2.951 1.095-4.545-.505 1.066-1.315 1.959-2.327 2.566-1.013.607-2.183.9-3.362.843-.997.044-1.989-.151-2.895-.568-.906-.418-1.698-1.046-2.311-1.832-1.341-1.879-1.999-4.159-1.863-6.463v-8.523h7.112v9.574c-.029.703.204 1.391.654 1.932.218.255.492.456.8.589.308.133.643.194.978.178.373.003.741-.086 1.071-.26.33-.174.612-.426.821-.735.519-.759.779-1.666.74-2.585v-8.636h7.197v12.784c0 3.958-.887 6.97-2.66 9.034-.955 1.042-2.132 1.857-3.444 2.386-1.312.529-2.726.757-4.137.668-1.204.011-2.406-.108-3.584-.355zM118.891 7.46c.192.427.475.807.829 1.113.751.675 1.735 1.032 2.745.994.993.013 1.955-.341 2.703-.994.361-.3.651-.676.851-1.1.199-.425.303-.888.303-1.357s-.104-.932-.303-1.357c-.2-.425-.49-.8-.851-1.1-.748-.673-1.725-1.034-2.731-1.009-.979-.006-1.926.348-2.66.994-.369.294-.666.668-.868 1.094-.202.426-.304.892-.298 1.363-.007.468.089.931.28 1.358zM118.81 22.635c-.101 1.812.471 3.597 1.607 5.014v-.028c.572.628 1.278 1.12 2.066 1.439.787.32 1.637.459 2.485.407.845 0 1.686-.105 2.504-.313.708-.156 1.376-.456 1.963-.881l-.427-4.744c-.429.26-.92.402-1.422.412-.205.009-.409-.025-.599-.098-.191-.073-.365-.185-.511-.328-.149-.162-.263-.353-.337-.56-.073-.207-.103-.428-.09-.647v-10.199h-7.239v10.525zM132.407 25.547l6.002-9.062h-5.775v-4.375h14.224v3.679l-5.69 9.034h5.832v4.361h-14.593v-3.636zM106.975 21.755v-9.645h6.87v9.701c.029 1.41-.367 2.796-1.138 3.977-.791 1.17-1.895 2.096-3.186 2.67-1.48.659-3.088.984-4.708.952-1.648.031-3.283-.294-4.793-.952-1.314-.556-2.443-1.472-3.257-2.642-.404-.61-.707-1.282-.896-1.989l6.373-6.363c.141-.154.274-.315.398-.483v4.773c-.021.321.024.642.132.945.107.303.275.581.494.816.208.208.457.37.731.478.274.108.567.158.862.147.283.009.565-.042.828-.149.262-.108.499-.27.694-.476.422-.486.637-1.119.597-1.761z" fill="#fff"/></svg>